<svg xmlns="http://www.w3.org/2000/svg" xmlns:xlink="http://www.w3.org/1999/xlink" preserveAspectRatio="xMidYMid" width="323" height="89" viewBox="0 0 323 89">
  <defs>
    <style>
      .cls-1 {
        fill: #ffce00;
      }

      .cls-1, .cls-2 {
        fill-rule: evenodd;
      }

      .cls-2 {
        fill: #d1112f;
      }
    </style>
  </defs>
  <g>
    <path d="M44.500,89.000 C69.010,89.000 89.000,69.009 89.000,44.500 C89.000,19.990 69.010,-0.000 44.500,-0.000 C19.990,-0.000 -0.000,19.990 -0.000,44.500 C-0.000,69.009 19.990,89.000 44.500,89.000 " class="cls-1"/>
    <path d="M4.157,63.243 C9.467,56.393 14.772,49.542 20.084,42.670 C4.291,22.341 11.338,31.392 5.344,23.725 C7.228,20.198 10.331,15.863 13.056,12.981 C25.306,12.988 14.626,13.007 27.693,13.007 L32.325,24.080 C33.132,25.707 33.967,27.397 34.512,29.132 C34.870,28.021 35.534,26.516 36.505,24.621 C38.335,21.106 40.200,16.479 42.044,12.972 L71.239,12.972 L48.939,42.670 L74.224,75.934 L44.956,75.934 L36.892,61.384 C36.083,59.991 35.520,58.937 35.196,58.228 C34.872,57.517 34.643,56.869 34.512,56.283 C34.352,56.897 34.100,57.588 33.760,58.358 C33.421,59.123 32.911,60.130 32.228,61.384 L24.351,75.926 C13.829,75.926 18.290,75.944 12.578,75.956 C9.250,72.437 6.204,67.700 4.157,63.243 " class="cls-2"/>
    <path d="M308.916,66.979 L306.314,59.070 L289.105,59.070 L286.431,66.987 L272.803,66.987 L289.493,23.000 L306.318,23.000 L323.000,66.979 L308.916,66.979 ZM297.971,33.488 L297.710,33.488 L292.104,50.116 L303.381,50.116 L297.971,33.488 ZM259.265,66.984 L249.930,52.397 L242.071,52.397 L242.064,66.999 L230.079,66.999 L230.085,23.000 L252.732,23.000 C264.196,23.000 270.449,28.496 270.449,37.443 C270.449,43.450 267.322,48.435 261.395,50.863 L272.293,66.984 L259.265,66.984 ZM251.689,31.947 L242.071,31.947 L242.071,43.706 L251.689,43.706 C255.858,43.706 258.203,41.278 258.203,37.571 C258.203,34.120 255.858,31.947 251.689,31.947 ZM212.082,67.000 L200.088,67.000 L200.088,32.721 L191.732,32.721 C190.081,29.052 187.729,25.758 184.839,23.000 L226.684,23.000 L226.684,32.721 L212.082,32.721 L212.082,67.000 ZM186.376,65.904 L187.177,66.989 L185.336,66.989 L173.357,66.989 L163.710,52.824 L154.323,66.989 L142.041,66.989 L141.025,66.989 L142.041,65.567 L157.061,44.530 L141.538,23.008 L155.358,23.008 L163.280,35.304 L171.014,23.000 L184.312,23.000 L169.929,43.599 L186.376,65.904 ZM117.366,32.465 L117.366,40.140 L131.589,40.140 C131.309,41.800 131.156,43.503 131.156,45.241 C131.156,46.458 131.236,47.657 131.375,48.837 L117.366,48.837 L117.366,57.535 L133.741,57.535 C135.303,61.082 137.519,64.285 140.241,67.000 L104.000,67.000 L104.000,23.000 L140.738,23.000 C137.916,25.694 135.608,28.899 133.963,32.465 L117.366,32.465 Z" class="cls-2"/>
  </g>
</svg>
